<svg xmlns="http://www.w3.org/2000/svg" viewBox="0 0 1600 900" role="img" aria-label="札幌の街並みと交流会">
  <rect width="1600" height="900" fill="#102a43"/>
  <path d="M0 640c180-120 308-64 480-132 189-75 344-238 566-202 213 34 300 196 554 116v478H0z" fill="#1f6b4f"/>
  <path d="M0 705c226-78 377 5 601-44 207-45 373-143 573-95 129 31 247 102 426 64v270H0z" fill="#256d85"/>
  <g fill="#f7fbfb" opacity=".95">
    <rect x="150" y="330" width="100" height="260"/><rect x="275" y="260" width="145" height="330"/>
    <rect x="460" y="360" width="90" height="230"/><rect x="1110" y="300" width="150" height="290"/>
    <rect x="1300" y="230" width="120" height="360"/>
  </g>
  <g fill="#cfe8dc" opacity=".75">
    <circle cx="710" cy="560" r="54"/><circle cx="790" cy="560" r="54"/><circle cx="870" cy="560" r="54"/>
    <rect x="656" y="614" width="270" height="54" rx="12"/>
  </g>
  <circle cx="1215" cy="180" r="76" fill="#ffffff" opacity=".7"/>
</svg>
